<?xml version="1.0" standalone="no"?>
<!DOCTYPE svg PUBLIC "-//W3C//DTD SVG 20010904//EN"
 "http://www.w3.org/TR/2001/REC-SVG-20010904/DTD/svg10.dtd">
<svg version="1.0" xmlns="http://www.w3.org/2000/svg"
 width="1707.000000pt" height="1707.000000pt" viewBox="0 0 1707.000000 1707.000000"
 preserveAspectRatio="xMidYMid meet">
<metadata>
Created by potrace 1.11, written by Peter Selinger 2001-2013
</metadata>
<g transform="translate(0.000000,1707.000000) scale(0.100000,-0.100000)"
fill="#000000" stroke="none">
<path d="M11705 13643 c-1708 -71 -3231 -982 -4135 -2473 -75 -123 -223 -410
-546 -1052 -129 -257 -242 -481 -252 -496 l-17 -29 -95 115 c-501 610 -1216
1063 -1975 1251 -335 83 -532 106 -915 105 -330 0 -480 -14 -753 -69 -1478
-300 -2646 -1471 -2946 -2953 -57 -280 -66 -385 -66 -752 0 -368 9 -472 66
-755 206 -1016 818 -1893 1717 -2458 381 -239 878 -428 1337 -507 338 -58 -4
-53 4685 -58 3121 -2 4339 0 4455 8 520 37 1039 154 1520 345 150 59 481 219
640 309 529 300 1048 744 1433 1224 904 1129 1280 2549 1056 3987 -109 700
-386 1404 -790 2007 -201 299 -372 507 -633 769 -413 412 -829 710 -1346 964
-764 376 -1600 553 -2440 518z m565 -2288 c625 -89 1182 -364 1616 -800 863
-865 1069 -2167 515 -3250 -450 -881 -1323 -1455 -2321 -1525 -92 -6 -982 -10
-2427 -10 l-2282 0 53 103 c29 56 248 489 486 962 238 473 485 964 550 1090
65 127 315 622 555 1100 241 479 465 915 497 969 466 787 1253 1289 2153 1375
138 13 467 6 605 -14z m-8180 -2583 c301 -70 539 -208 762 -440 142 -148 218
-272 461 -752 l216 -425 -349 -690 -349 -690 -588 0 c-639 0 -679 3 -872 57
-279 78 -555 253 -738 470 -351 414 -458 952 -292 1460 165 505 606 900 1125
1007 55 11 110 22 124 25 14 2 113 3 220 1 149 -3 215 -8 280 -23z"/>
</g>
</svg>
