<?xml version="1.0" standalone="no"?>
<!DOCTYPE svg PUBLIC "-//W3C//DTD SVG 20010904//EN"
 "http://www.w3.org/TR/2001/REC-SVG-20010904/DTD/svg10.dtd">
<svg version="1.0" xmlns="http://www.w3.org/2000/svg"
 width="500.000000pt" height="500.000000pt" viewBox="0 0 500.000000 500.000000"
 preserveAspectRatio="xMidYMid meet">
<metadata>
Created by potrace 1.11, written by Peter Selinger 2001-2013
</metadata>
<g transform="translate(0.000000,500.000000) scale(0.100000,-0.100000)"
fill="#000000" stroke="none">
<path d="M3285 3986 c-328 -48 -619 -195 -850 -430 -146 -148 -203 -237 -385
-598 l-70 -137 -92 93 c-145 146 -312 244 -506 297 -110 29 -355 37 -474 15
-369 -70 -674 -310 -819 -646 -71 -165 -83 -230 -84 -445 0 -177 2 -197 28
-289 100 -360 368 -646 713 -762 181 -60 104 -57 1494 -61 1375 -5 1417 -3
1615 47 995 251 1441 1418 867 2270 -223 332 -548 549 -944 630 -131 27 -366
35 -493 16z m408 -685 c350 -91 606 -418 608 -776 1 -178 -39 -318 -131 -459
-112 -172 -276 -290 -485 -348 -79 -22 -90 -22 -797 -26 -395 -1 -718 0 -718
4 0 16 618 1226 653 1278 119 176 333 313 544 346 83 13 235 4 326 -19z
m-2400 -774 c107 -53 159 -114 249 -291 l72 -143 -101 -199 -102 -199 -160 -3
c-112 -2 -181 2 -231 12 -156 33 -278 143 -330 297 -18 52 -21 81 -18 155 3
81 8 100 41 167 55 111 151 194 272 234 25 8 76 12 136 10 88 -2 103 -6 172
-40z"/>
</g>
</svg>
